<?xml version="1.0" encoding="utf-8"?>
<svg version="1.1" xmlns:xlink="http://www.w3.org/1999/xlink" width="12px" height="15px" xmlns="http://www.w3.org/2000/svg">
  <g transform="matrix(1 0 0 1 -39 -593 )">
    <path d="M 7.1055900621118 7.15430861723447  C 7.18840579710145 7.25450901803607  7.22981366459627 7.36973947895792  7.22981366459627 7.5  C 7.22981366459627 7.63026052104208  7.18840579710145 7.74549098196393  7.1055900621118 7.84569138276553  L 1.3167701863354 14.8496993987976  C 1.23395445134576 14.9498997995992  1.13871635610766 15  1.03105590062112 15  C 0.923395445134576 15  0.82815734989648 14.9498997995992  0.745341614906832 14.8496993987976  L 0.124223602484472 14.0981963927856  C 0.041407867494824 13.997995991984  0 13.8827655310621  0 13.75250501002  C 0 13.622244488978  0.041407867494824 13.5070140280561  0.124223602484472 13.4068136272545  L 5.00621118012422 7.5  L 0.124223602484472 1.59318637274549  C 0.041407867494824 1.49298597194389  0 1.37775551102204  0 1.24749498997996  C 0 1.11723446893787  0.041407867494824 1.00200400801603  0.124223602484472 0.901803607214428  L 0.745341614906832 0.150300601202405  C 0.82815734989648 0.0501002004008011  0.923395445134576 0  1.03105590062112 0  C 1.13871635610766 0  1.23395445134576 0.0501002004008011  1.3167701863354 0.150300601202405  L 7.1055900621118 7.15430861723447  Z M 11.8757763975155 7.15430861723447  C 11.9585921325052 7.25450901803607  12 7.36973947895792  12 7.5  C 12 7.63026052104208  11.9585921325052 7.74549098196393  11.8757763975155 7.84569138276553  L 6.08695652173913 14.8496993987976  C 6.00414078674948 14.9498997995992  5.90890269151139 15  5.80124223602484 15  C 5.6935817805383 15  5.59834368530021 14.9498997995992  5.51552795031056 14.8496993987976  L 4.8944099378882 14.0981963927856  C 4.81159420289855 13.997995991984  4.77018633540373 13.8827655310621  4.77018633540373 13.75250501002  C 4.77018633540373 13.622244488978  4.81159420289855 13.5070140280561  4.8944099378882 13.4068136272545  L 9.77639751552795 7.5  L 4.8944099378882 1.59318637274549  C 4.81159420289855 1.49298597194389  4.77018633540373 1.37775551102204  4.77018633540373 1.24749498997996  C 4.77018633540373 1.11723446893787  4.81159420289855 1.00200400801603  4.8944099378882 0.901803607214428  L 5.51552795031056 0.150300601202405  C 5.59834368530021 0.0501002004008011  5.6935817805383 0  5.80124223602484 0  C 5.90890269151139 0  6.00414078674948 0.0501002004008011  6.08695652173913 0.150300601202405  L 11.8757763975155 7.15430861723447  Z " fill-rule="nonzero" fill="#000000" stroke="none" transform="matrix(1 0 0 1 39 593 )" />
  </g>
</svg>