<?xml version="1.0" encoding="utf-8"?>
<svg version="1.1" xmlns:xlink="http://www.w3.org/1999/xlink" width="12px" height="6px" xmlns="http://www.w3.org/2000/svg">
  <g transform="matrix(1 0 0 1 -313 -549 )">
    <path d="M 11.8797595190382 4.87917525773196  C 11.9599198396794 4.94751104565538  12 5.02609720176731  12 5.11493372606775  C 12 5.20377025036819  11.9599198396794 5.28235640648013  11.8797595190382 5.35069219440353  L 11.2785571142284 5.86321060382916  C 11.1983967935872 5.93154639175257  11.1062124248497 5.96571428571429  11.0020040080159 5.96571428571429  C 10.8977955911824 5.96571428571429  10.805611222445 5.93154639175257  10.7254509018036 5.86321060382916  L 6 1.83481590574373  L 1.27454909819642 5.86321060382916  C 1.19438877755499 5.93154639175257  1.10220440881756 5.96571428571429  0.997995991984112 5.96571428571429  C 0.89378757515027 5.96571428571429  0.801603206412778 5.93154639175257  0.72144288577158 5.86321060382916  L 0.120240480961797 5.35069219440353  C 0.0400801603205991 5.28235640648013  0 5.20377025036819  0 5.11493372606775  C 0 5.02609720176731  0.0400801603205991 4.94751104565538  0.120240480961797 4.87917525773196  L 5.72344689378747 0.102503681885137  C 5.80360721442878 0.0341678939616961  5.89579158316621 0  6 0  C 6.10420841683379 0  6.19639278557122 0.0341678939616961  6.27655310621253 0.102503681885137  L 11.8797595190382 4.87917525773196  Z " fill-rule="nonzero" fill="#999999" stroke="none" transform="matrix(1 0 0 1 313 549 )" />
  </g>
</svg>