<?xml version="1.0" encoding="utf-8"?>
<svg version="1.1" xmlns:xlink="http://www.w3.org/1999/xlink" width="25px" height="22px" xmlns="http://www.w3.org/2000/svg">
  <g transform="matrix(1 0 0 1 -1074 -152 )">
    <path d="M 23.0817522321429 19.8515625  C 23.1701078869048 19.7526041666667  23.2142857142857 19.6354166666667  23 19.5  L 23 7.5  C 22.9166666666667 7.875  22.5957961309524 8.21875  22.2516741071429 8.53125  C 19.7591145833333 10.6770833333333  17.7780877976191 12.4375  16.30859375 13.8125  C 15.8342633928571 14.2604166666667  15.4482886904762 14.609375  15.1506696428571 14.859375  C 14.8530505952381 15.109375  14.4507998511905 15.3619791666667  13.9439174107143 15.6171875  C 13.4370349702381 15.8723958333333  12.9603794642857 16  12.5139508928571 16  L 12.5 16  L 12.4860491071429 16  C 12.0396205357143 16  11.5629650297619 15.8723958333333  11.0560825892857 15.6171875  C 10.5492001488095 15.3619791666667  10.1469494047619 15.109375  9.84933035714286 14.859375  C 9.55171130952381 14.609375  9.16573660714286 14.2604166666667  8.69140625 13.8125  C 7.22191220238095 12.4375  5.24088541666667 10.6770833333333  2.74832589285714 8.53125  C 2.40420386904762 8.21875  2.08333333333333 7.875  2 7.5  L 2 19.5  C 1.78571428571429 19.6354166666667  1.82989211309524 19.7526041666667  1.91824776785714 19.8515625  C 2.00660342261905 19.9505208333333  2.11123511904762 20  2.23214285714286 20  L 22.7678571428571 20  C 22.8887648809524 20  22.993396577381 19.9505208333333  23.0817522321429 19.8515625  Z M 22.5655691964286 5.1328125  C 22.998046875 4.37760416666666  23.2142857142857 3.69270833333333  23.2142857142857 3.078125  L 23.2142857142857 2.90625  L 23.2142857142857 2.6953125  C 23.2142857142857 2.6953125  23.2119605654762 2.62760416666666  23.2073102678571 2.4921875  C 23.2026599702381 2.35677083333333  23.188709077381 2.29166666666666  23.1654575892857 2.296875  C 23.1422061011905 2.30208333333333  23.1166294642857 2.25520833333333  23.0887276785714 2.15625  C 23.0608258928571 2.05729166666666  23.0189732142857 2.01822916666667  22.9631696428571 2.0390625  C 22.9073660714286 2.05989583333333  22.8422619047619 2.046875  22.7678571428571 2  L 2.23214285714286 2  C 2.11123511904762 2  2.00660342261905 2.04947916666666  1.91824776785714 2.1484375  C 1.82989211309524 2.24739583333333  1.78571428571429 2.36458333333333  1.78571428571429 2.5  C 1.78571428571429 4.25  2.46930803571429 5.72916666666666  3.83649553571429 6.9375  C 5.63151041666667 8.52083333333333  7.49627976190476 10.171875  9.43080357142857 11.890625  C 9.48660714285714 11.9427083333333  9.64936755952381 12.0963541666667  9.91908482142857 12.3515625  C 10.1888020833333 12.6067708333333  10.4027157738095 12.8020833333333  10.5608258928571 12.9375  C 10.7189360119048 13.0729166666667  10.9258742559524 13.2369791666667  11.181640625 13.4296875  C 11.4374069940476 13.6223958333333  11.6722470238095 13.765625  11.8861607142857 13.859375  C 12.1000744047619 13.953125  12.300037202381 14  12.4860491071429 14  L 12.5 14  L 12.5139508928571 14  C 12.699962797619 14  12.8999255952381 13.953125  13.1138392857143 13.859375  C 13.3277529761905 13.765625  13.5625930059524 13.6223958333333  13.818359375 13.4296875  C 14.0741257440476 13.2369791666667  14.2810639880952 13.0729166666667  14.4391741071429 12.9375  C 14.5972842261905 12.8020833333333  14.8111979166667 12.6067708333333  15.0809151785714 12.3515625  C 15.3506324404762 12.0963541666667  15.5133928571429 11.9427083333333  15.5691964285714 11.890625  C 17.5037202380952 10.171875  19.3684895833333 8.52083333333333  21.1635044642857 6.9375  C 21.6657366071429 6.48958333333333  22.1330915178571 5.88802083333333  22.5655691964286 5.1328125  Z M 24.3443080357143 0.734374999999999  C 24.7814360119048 1.22395833333333  25 1.8125  25 2.5  L 25 19.5  C 25 20.1875  24.7814360119048 20.7760416666667  24.3443080357143 21.265625  C 23.9071800595238 21.7552083333333  23.3816964285714 22  22.7678571428571 22  L 2.23214285714286 22  C 1.61830357142857 22  1.09281994047619 21.7552083333333  0.655691964285714 21.265625  C 0.218563988095238 20.7760416666667  0 20.1875  0 19.5  L 0 2.5  C 0 1.8125  0.218563988095238 1.22395833333333  0.655691964285714 0.734374999999999  C 1.09281994047619 0.244791666666664  1.61830357142857 0  2.23214285714286 0  L 22.7678571428571 0  C 23.3816964285714 0  23.9071800595238 0.244791666666664  24.3443080357143 0.734374999999999  Z " fill-rule="nonzero" fill="#aaaaaa" stroke="none" transform="matrix(1 0 0 1 1074 152 )" />
  </g>
</svg>