<?xml version="1.0" encoding="utf-8"?>
<svg version="1.1" xmlns:xlink="http://www.w3.org/1999/xlink" width="15px" height="18px" xmlns="http://www.w3.org/2000/svg">
  <g transform="matrix(1 0 0 1 -322 -303 )">
    <path d="M 7.053 8.3558  C 4.86200000000002 8.3558  3.08600000000001 6.6254  3.08600000000001 4.4904  C 3.08600000000001 2.3554  4.86200000000002 0.625  7.053 0.625  C 9.243 0.625  11.02 2.3554  11.02 4.4904  C 11.02 6.6254  9.243 8.3558  7.053 8.3558  Z M 0 16.6019  L 0 14.2827  C 0 11.7208  2.10700000000003 9.6442  4.70299999999997 9.6442  L 9.40199999999999 9.6442  C 11.998 9.6442  14.105 11.7208  14.105 14.2827  L 14.105 16.6019  C 14.105 17.0288  13.753 17.375  13.321 17.375  L 0.785000000000025 17.375  C 0.353000000000009 17.375  0 17.0288  0 16.6019  Z " fill-rule="nonzero" fill="#ffffff" stroke="none" transform="matrix(1 0 0 1 322 303 )" />
  </g>
</svg>