<?xml version="1.0" encoding="utf-8"?>
<svg version="1.1" xmlns:xlink="http://www.w3.org/1999/xlink" width="12px" height="15px" xmlns="http://www.w3.org/2000/svg">
  <g transform="matrix(1 0 0 1 -1038 -413 )">
    <path d="M 4 7.6667  L 8 7.6667  C 9.84100000000001 7.6667  12 9.0952  12 11.6667  L 12 13.6667  C 12 14.0349  11.702 14.3333  11.333 14.3333  L 0.666999999999973 14.3333  C 0.298000000000002 14.3333  0 14.0349  0 13.6667  L 0 11.6667  C 0 9.0974  2.15899999999999 7.6667  4 7.6667  Z M 2.66699999999997 3.3333  C 2.66699999999997 1.4924  4.15899999999999 0  6 0  C 7.84100000000001 0  9.33299999999997 1.4924  9.33299999999997 3.3333  C 9.33299999999997 5.1743  7.84100000000001 6.6667  6 6.6667  C 4.15899999999999 6.6667  2.66699999999997 5.1743  2.66699999999997 3.3333  Z " fill-rule="nonzero" fill="#ffffff" stroke="none" transform="matrix(1 0 0 1 1038 413 )" />
  </g>
</svg>