<?xml version="1.0" encoding="utf-8"?>
<svg version="1.1" xmlns:xlink="http://www.w3.org/1999/xlink" width="10px" height="12px" xmlns="http://www.w3.org/2000/svg">
  <g transform="matrix(1 0 0 1 -1279 -414 )">
    <path d="M 3.5 6.5  L 6.5 6.5  C 7.88099999999997 6.5  9.5 7.5714  9.5 9.5  L 9.5 11  C 9.5 11.2761  9.27599999999995 11.5  9 11.5  L 1 11.5  C 0.724000000000046 11.5  0.5 11.2761  0.5 11  L 0.5 9.5  C 0.5 7.573  2.11900000000003 6.5  3.5 6.5  Z M 2.5 3.25  C 2.5 1.8693  3.61900000000003 0.75  5 0.75  C 6.38099999999997 0.75  7.5 1.8693  7.5 3.25  C 7.5 4.6307  6.38099999999997 5.75  5 5.75  C 3.61900000000003 5.75  2.5 4.6307  2.5 3.25  Z " fill-rule="nonzero" fill="#ffffff" stroke="none" transform="matrix(1 0 0 1 1279 414 )" />
  </g>
</svg>