<?xml version="1.0" encoding="utf-8"?>
<svg version="1.1" xmlns:xlink="http://www.w3.org/1999/xlink" width="15px" height="22px" xmlns="http://www.w3.org/2000/svg">
  <g transform="matrix(1 0 0 1 -957 -150 )">
    <path d="M 9.68108108108108 16.70625  C 9.81081081081081 16.84375  9.87567567567568 17.0041666666667  9.87567567567568 17.1875  L 9.87567567567568 21.3125  C 9.87567567567568 21.4958333333333  9.81081081081081 21.65625  9.68108108108108 21.79375  C 9.55135135135135 21.93125  9.4 22  9.22702702702703 22  L 5.33513513513513 22  C 5.16216216216216 22  5.01081081081081 21.93125  4.88108108108108 21.79375  C 4.75135135135135 21.65625  4.68648648648649 21.4958333333333  4.68648648648649 21.3125  L 4.68648648648649 17.1875  C 4.68648648648649 17.0041666666667  4.75135135135135 16.84375  4.88108108108108 16.70625  C 5.01081081081081 16.56875  5.16216216216216 16.5  5.33513513513513 16.5  L 9.22702702702703 16.5  C 9.4 16.5  9.55135135135135 16.56875  9.68108108108108 16.70625  Z M 14.3351351351351 4.15078125  C 14.7783783783784 5.01588541666666  15 5.92395833333333  15 6.875  C 15 7.49375  14.9162162162162 8.07239583333333  14.7486486486486 8.6109375  C 14.5810810810811 9.14947916666666  14.3918918918919 9.58776041666667  14.1810810810811 9.92578125  C 13.9702702702703 10.2638020833333  13.672972972973 10.6046875  13.2891891891892 10.9484375  C 12.9054054054054 11.2921875  12.5945945945946 11.54140625  12.3567567567568 11.69609375  C 12.1189189189189 11.85078125  11.7891891891892 12.0541666666667  11.3675675675676 12.30625  C 10.9243243243243 12.5697916666667  10.5540540540541 12.9421875  10.2567567567568 13.4234375  C 9.95945945945946 13.9046875  9.81081081081081 14.2885416666667  9.81081081081081 14.575  C 9.81081081081081 14.7697916666667  9.74594594594595 14.9559895833333  9.61621621621622 15.13359375  C 9.48648648648649 15.3111979166667  9.33513513513514 15.4  9.16216216216216 15.4  L 5.27027027027027 15.4  C 5.10810810810811 15.4  4.97027027027027 15.2940104166667  4.85675675675676 15.08203125  C 4.74324324324324 14.8700520833333  4.68648648648649 14.6552083333333  4.68648648648649 14.4375  L 4.68648648648649 13.6640625  C 4.68648648648649 12.7130208333333  5.03783783783784 11.81640625  5.74054054054054 10.97421875  C 6.44324324324324 10.13203125  7.21621621621622 9.51041666666667  8.05945945945946 9.109375  C 8.6972972972973 8.8  9.15135135135135 8.47916666666667  9.42162162162162 8.146875  C 9.69189189189189 7.81458333333333  9.82702702702703 7.37916666666666  9.82702702702703 6.840625  C 9.82702702702703 6.359375  9.57567567567568 5.93541666666667  9.07297297297297 5.56875  C 8.57027027027027 5.20208333333333  7.98918918918919 5.01875  7.32972972972973 5.01875  C 6.62702702702703 5.01875  6.04324324324324 5.18489583333333  5.57837837837838 5.5171875  C 5.2 5.80364583333333  4.62162162162162 6.4625  3.84324324324324 7.49375  C 3.7027027027027 7.67708333333333  3.53513513513514 7.76875  3.34054054054054 7.76875  C 3.21081081081081 7.76875  3.07567567567568 7.72291666666666  2.93513513513513 7.63125  L 0.275675675675676 5.4828125  C 0.135135135135135 5.36822916666666  0.0513513513513517 5.225  0.0243243243243243 5.053125  C -0.00270270270270255 4.88125  0.0270270270270271 4.72083333333333  0.113513513513514 4.571875  C 1.84324324324324 1.52395833333333  4.35135135135135 0  7.63783783783784 0  C 8.5027027027027 0  9.37297297297297 0.177604166666666  10.2486486486486 0.532812499999999  C 11.1243243243243 0.888020833333332  11.9135135135135 1.36354166666666  12.6162162162162 1.959375  C 13.3189189189189 2.55520833333333  13.8918918918919 3.28567708333333  14.3351351351351 4.15078125  Z " fill-rule="nonzero" fill="#aaaaaa" stroke="none" transform="matrix(1 0 0 1 957 150 )" />
  </g>
</svg>