<?xml version="1.0" encoding="utf-8"?>
<svg version="1.1" xmlns:xlink="http://www.w3.org/1999/xlink" width="24px" height="28px" xmlns="http://www.w3.org/2000/svg">
  <g transform="matrix(1 0 0 1 -138 -296 )">
    <path d="M 12.085 12.9688  C 8.5798 12.9688  5.7376 10.2002  5.7376 6.7842  C 5.7376 3.3683  8.5798 0.599599999999999  12.085 0.599599999999999  C 15.5901 0.599599999999999  18.4324 3.3683  18.4324 6.7842  C 18.4324 10.2002  15.5901 12.9688  12.085 12.9688  Z M 0.800799999999999 26.1627  L 0.800799999999999 22.4519  C 0.800799999999999 18.3529  4.1719 15.0304  8.3259 15.0304  L 15.844 15.0304  C 19.998 15.0304  23.3692 18.3529  23.3692 22.4519  L 23.3692 26.1627  C 23.3692 26.8457  22.805 27.3996  22.1138 27  L 2.0561 27  C 1.365 27.3996  0.800799999999999 26.8457  0.800799999999999 26.1627  Z " fill-rule="nonzero" fill="#ffffff" stroke="none" transform="matrix(1 0 0 1 138 296 )" />
  </g>
</svg>