<?xml version="1.0" encoding="utf-8"?>
<svg version="1.1" xmlns:xlink="http://www.w3.org/1999/xlink" width="10px" height="10px" xmlns="http://www.w3.org/2000/svg">
  <g transform="matrix(1 0 0 1 -772 -234 )">
    <path d="M 9.41950000000001 1.1699  L 8.83016666666668 0.58065  C 8.50466666666667 0.255216666666667  7.97716666666666 0.255216666666667  7.65166666666666 0.58065  L 5 3.2323  L 2.34833333333334 0.58065  C 2.02283333333334 0.255216666666667  1.49533333333333 0.255216666666667  1.16983333333332 0.58065  L 0.580499999999991 1.1699  C 0.255166666666658 1.49535  0.255166666666658 2.02298333333333  0.580499999999991 2.34841666666667  L 3.23216666666667 5.00006666666667  L 0.580499999999991 7.65171666666667  C 0.255166666666658 7.97715  0.255166666666658 8.5048  0.580499999999991 8.83023333333333  L 1.16983333333332 9.41948333333333  C 1.49533333333333 9.74491666666667  2.02283333333334 9.74491666666667  2.34833333333334 9.41948333333333  L 5 6.76783333333333  L 7.65166666666666 9.41948333333333  C 7.97716666666666 9.74491666666667  8.50466666666667 9.74491666666667  8.83016666666668 9.41948333333333  L 9.41950000000001 8.83023333333333  C 9.74483333333334 8.5048  9.74483333333334 7.97715  9.41950000000001 7.65171666666667  L 6.76783333333333 5.00006666666667  L 9.41950000000001 2.34841666666667  C 9.74483333333334 2.02298333333333  9.74483333333334 1.49535  9.41950000000001 1.1699  Z " fill-rule="nonzero" fill="#4e5969" stroke="none" transform="matrix(1 0 0 1 772 234 )" />
  </g>
</svg>