<?xml version="1.0" encoding="utf-8"?>
<svg version="1.1" xmlns:xlink="http://www.w3.org/1999/xlink" width="25px" height="21px" xmlns="http://www.w3.org/2000/svg">
  <g transform="matrix(1 0 0 1 -1005 -855 )">
    <path d="M 23.0817522321429 18.94921875  C 23.1701078869048 18.8547585227273  23.2142857142857 18.7428977272727  23 18.6136363636364  L 23 7.15909090909091  C 22.9166666666667 7.51704545454545  22.5957961309524 7.84517045454545  22.2516741071429 8.14346590909091  C 19.7591145833333 10.1917613636364  17.7780877976191 11.8721590909091  16.30859375 13.1846590909091  C 15.8342633928571 13.6122159090909  15.4482886904762 13.9453125  15.1506696428571 14.1839488636364  C 14.8530505952381 14.4225852272727  14.4507998511905 14.6637073863636  13.9439174107143 14.9073153409091  C 13.4370349702381 15.1509232954545  12.9603794642857 15.2727272727273  12.5139508928571 15.2727272727273  L 12.5 15.2727272727273  L 12.4860491071429 15.2727272727273  C 12.0396205357143 15.2727272727273  11.5629650297619 15.1509232954545  11.0560825892857 14.9073153409091  C 10.5492001488095 14.6637073863636  10.1469494047619 14.4225852272727  9.84933035714286 14.1839488636364  C 9.55171130952381 13.9453125  9.16573660714286 13.6122159090909  8.69140625 13.1846590909091  C 7.22191220238095 11.8721590909091  5.24088541666667 10.1917613636364  2.74832589285714 8.14346590909091  C 2.40420386904762 7.84517045454545  2.08333333333333 7.51704545454545  2 7.15909090909091  L 2 18.6136363636364  C 1.78571428571429 18.7428977272727  1.82989211309524 18.8547585227273  1.91824776785714 18.94921875  C 2.00660342261905 19.0436789772727  2.11123511904762 19.0909090909091  2.23214285714286 19  L 22.7678571428571 19  C 22.8887648809524 19.0909090909091  22.993396577381 19.0436789772727  23.0817522321429 18.94921875  Z M 22.5655691964286 4.89950284090909  C 22.998046875 4.17862215909091  23.2142857142857 3.52485795454545  23.2142857142857 2.93821022727273  L 23.2142857142857 2.77414772727273  L 23.2142857142857 2.57279829545455  C 23.2142857142857 2.57279829545455  23.2119605654762 2.50816761363636  23.2073102678571 2.37890625  C 23.2026599702381 2.24964488636363  23.188709077381 2.1875  23.1654575892857 2.19247159090909  C 23.1422061011905 2.19744318181818  23.1166294642857 2.15269886363636  23.0887276785714 2.05823863636364  C 23.0608258928571 1.96377840909091  23.0189732142857 1.92649147727273  22.9631696428571 1.94637784090909  C 22.9073660714286 1.96626420454545  22.8422619047619 1.95383522727273  22.7678571428571 2  L 2.23214285714286 2  C 2.11123511904762 1.90909090909091  2.00660342261905 1.95632102272727  1.91824776785714 2.05078125  C 1.82989211309524 2.14524147727273  1.78571428571429 2.25710227272727  1.78571428571429 2.38636363636364  C 1.78571428571429 4.05681818181818  2.46930803571429 5.46875  3.83649553571429 6.62215909090909  C 5.63151041666667 8.13352272727272  7.49627976190476 9.70951704545455  9.43080357142857 11.3501420454545  C 9.48660714285714 11.3998579545455  9.64936755952381 11.5465198863636  9.91908482142857 11.7901278409091  C 10.1888020833333 12.0337357954545  10.4027157738095 12.2201704545455  10.5608258928571 12.3494318181818  C 10.7189360119048 12.4786931818182  10.9258742559524 12.6352982954545  11.181640625 12.8192471590909  C 11.4374069940476 13.0031960227273  11.6722470238095 13.1399147727273  11.8861607142857 13.2294034090909  C 12.1000744047619 13.3188920454545  12.300037202381 13.3636363636364  12.4860491071429 13.3636363636364  L 12.5 13.3636363636364  L 12.5139508928571 13.3636363636364  C 12.699962797619 13.3636363636364  12.8999255952381 13.3188920454545  13.1138392857143 13.2294034090909  C 13.3277529761905 13.1399147727273  13.5625930059524 13.0031960227273  13.818359375 12.8192471590909  C 14.0741257440476 12.6352982954545  14.2810639880952 12.4786931818182  14.4391741071429 12.3494318181818  C 14.5972842261905 12.2201704545455  14.8111979166667 12.0337357954545  15.0809151785714 11.7901278409091  C 15.3506324404762 11.5465198863636  15.5133928571429 11.3998579545455  15.5691964285714 11.3501420454545  C 17.5037202380952 9.70951704545455  19.3684895833333 8.13352272727272  21.1635044642857 6.62215909090909  C 21.6657366071429 6.19460227272727  22.1330915178571 5.62038352272727  22.5655691964286 4.89950284090909  Z M 24.3443080357143 0.700994318181817  C 24.7814360119048 1.16832386363636  25 1.73011363636364  25 2.38636363636364  L 25 18.6136363636364  C 25 19.2698863636364  24.7814360119048 19.8316761363636  24.3443080357143 20.2990056818182  C 23.9071800595238 20.7663352272727  23.3816964285714 21  22.7678571428571 21  L 2.23214285714286 21  C 1.61830357142857 21  1.09281994047619 20.7663352272727  0.655691964285714 20.2990056818182  C 0.218563988095238 19.8316761363636  0 19.2698863636364  0 18.6136363636364  L 0 2.38636363636364  C 0 1.73011363636364  0.218563988095238 1.16832386363636  0.655691964285714 0.700994318181817  C 1.09281994047619 0.23366477272727  1.61830357142857 0  2.23214285714286 0  L 22.7678571428571 0  C 23.3816964285714 0  23.9071800595238 0.23366477272727  24.3443080357143 0.700994318181817  Z " fill-rule="nonzero" fill="#aaaaaa" stroke="none" transform="matrix(1 0 0 1 1005 855 )" />
  </g>
</svg>