<?xml version="1.0" encoding="utf-8"?>
<svg version="1.1" xmlns:xlink="http://www.w3.org/1999/xlink" width="15px" height="21px" xmlns="http://www.w3.org/2000/svg">
  <g transform="matrix(1 0 0 1 -957 -855 )">
    <path d="M 9.68108108108108 15.946875  C 9.81081081081081 16.078125  9.87567567567568 16.23125  9.87567567567568 16.40625  L 9.87567567567568 20.34375  C 9.87567567567568 20.51875  9.81081081081081 20.671875  9.68108108108108 20.803125  C 9.55135135135135 20.934375  9.4 21  9.22702702702703 21  L 5.33513513513513 21  C 5.16216216216216 21  5.01081081081081 20.934375  4.88108108108108 20.803125  C 4.75135135135135 20.671875  4.68648648648649 20.51875  4.68648648648649 20.34375  L 4.68648648648649 16.40625  C 4.68648648648649 16.23125  4.75135135135135 16.078125  4.88108108108108 15.946875  C 5.01081081081081 15.815625  5.16216216216216 15.75  5.33513513513513 15.75  L 9.22702702702703 15.75  C 9.4 15.75  9.55135135135135 15.815625  9.68108108108108 15.946875  Z M 14.3351351351351 3.962109375  C 14.7783783783784 4.787890625  15 5.6546875  15 6.5625  C 15 7.153125  14.9162162162162 7.70546875  14.7486486486486 8.21953125  C 14.5810810810811 8.73359375  14.3918918918919 9.151953125  14.1810810810811 9.474609375  C 13.9702702702703 9.797265625  13.672972972973 10.12265625  13.2891891891892 10.45078125  C 12.9054054054054 10.77890625  12.5945945945946 11.016796875  12.3567567567568 11.164453125  C 12.1189189189189 11.312109375  11.7891891891892 11.50625  11.3675675675676 11.746875  C 10.9243243243243 11.9984375  10.5540540540541 12.35390625  10.2567567567568 12.81328125  C 9.95945945945946 13.27265625  9.81081081081081 13.6390625  9.81081081081081 13.9125  C 9.81081081081081 14.0984375  9.74594594594595 14.276171875  9.61621621621622 14.445703125  C 9.48648648648649 14.615234375  9.33513513513514 14.7  9.16216216216216 14.7  L 5.27027027027027 14.7  C 5.10810810810811 14.7  4.97027027027027 14.598828125  4.85675675675676 14.396484375  C 4.74324324324324 14.194140625  4.68648648648649 13.9890625  4.68648648648649 13.78125  L 4.68648648648649 13.04296875  C 4.68648648648649 12.13515625  5.03783783783784 11.279296875  5.74054054054054 10.475390625  C 6.44324324324324 9.671484375  7.21621621621622 9.078125  8.05945945945946 8.6953125  C 8.6972972972973 8.4  9.15135135135135 8.09375  9.42162162162162 7.7765625  C 9.69189189189189 7.459375  9.82702702702703 7.04375  9.82702702702703 6.5296875  C 9.82702702702703 6.0703125  9.57567567567568 5.665625  9.07297297297297 5.315625  C 8.57027027027027 4.965625  7.98918918918919 4.790625  7.32972972972973 4.790625  C 6.62702702702703 4.790625  6.04324324324324 4.94921875  5.57837837837838 5.26640625  C 5.2 5.53984375  4.62162162162162 6.16875  3.84324324324324 7.153125  C 3.7027027027027 7.328125  3.53513513513514 7.415625  3.34054054054054 7.415625  C 3.21081081081081 7.415625  3.07567567567568 7.371875  2.93513513513513 7.284375  L 0.275675675675676 5.23359375  C 0.135135135135135 5.12421875  0.0513513513513517 4.9875  0.0243243243243243 4.8234375  C -0.00270270270270255 4.659375  0.0270270270270271 4.50625  0.113513513513514 4.3640625  C 1.84324324324324 1.4546875  4.35135135135135 0  7.63783783783784 0  C 8.5027027027027 0  9.37297297297297 0.16953125  10.2486486486486 0.508593749999999  C 11.1243243243243 0.847656249999998  11.9135135135135 1.3015625  12.6162162162162 1.8703125  C 13.3189189189189 2.4390625  13.8918918918919 3.136328125  14.3351351351351 3.962109375  Z " fill-rule="nonzero" fill="#aaaaaa" stroke="none" transform="matrix(1 0 0 1 957 855 )" />
  </g>
</svg>