<?xml version="1.0" encoding="utf-8"?>
<svg version="1.1" xmlns:xlink="http://www.w3.org/1999/xlink" width="48px" height="32px" xmlns="http://www.w3.org/2000/svg">
  <g transform="matrix(1 0 0 1 -451 -2622 )">
    <path d="M 452 2626  A 3 3 0 0 1 455 2623 L 495 2623  A 3 3 0 0 1 498 2626 L 498 2650  A 3 3 0 0 1 495 2653 L 455 2653  A 3 3 0 0 1 452 2650 L 452 2626  Z " fill-rule="nonzero" fill="#e6a23c" stroke="none" fill-opacity="0.0980392156862745" />
    <path d="M 451.5 2626  A 3.5 3.5 0 0 1 455 2622.5 L 495 2622.5  A 3.5 3.5 0 0 1 498.5 2626 L 498.5 2650  A 3.5 3.5 0 0 1 495 2653.5 L 455 2653.5  A 3.5 3.5 0 0 1 451.5 2650 L 451.5 2626  Z " stroke-width="1" stroke="#e6a23c" fill="none" stroke-opacity="0.2" />
  </g>
</svg>