<?xml version="1.0" encoding="utf-8"?>
<svg version="1.1" xmlns:xlink="http://www.w3.org/1999/xlink" width="76px" height="25px" xmlns="http://www.w3.org/2000/svg">
  <g transform="matrix(1 0 0 1 -1041 -4185 )">
    <path d="M 1042 4189  A 3 3 0 0 1 1045 4186 L 1113 4186  A 3 3 0 0 1 1116 4189 L 1116 4206  A 3 3 0 0 1 1113 4209 L 1045 4209  A 3 3 0 0 1 1042 4206 L 1042 4189  Z " fill-rule="nonzero" fill="#ffffff" stroke="none" fill-opacity="0.541176470588235" />
    <path d="M 1041.5 4189  A 3.5 3.5 0 0 1 1045 4185.5 L 1113 4185.5  A 3.5 3.5 0 0 1 1116.5 4189 L 1116.5 4206  A 3.5 3.5 0 0 1 1113 4209.5 L 1045 4209.5  A 3.5 3.5 0 0 1 1041.5 4206 L 1041.5 4189  Z " stroke-width="1" stroke="#909399" fill="none" stroke-opacity="0.2" />
  </g>
</svg>