<?xml version="1.0" encoding="utf-8"?>
<svg version="1.1" xmlns:xlink="http://www.w3.org/1999/xlink" width="76px" height="32px" xmlns="http://www.w3.org/2000/svg">
  <g transform="matrix(1 0 0 1 -513 -2622 )">
    <path d="M 514 2626  A 3 3 0 0 1 517 2623 L 585 2623  A 3 3 0 0 1 588 2626 L 588 2650  A 3 3 0 0 1 585 2653 L 517 2653  A 3 3 0 0 1 514 2650 L 514 2626  Z " fill-rule="nonzero" fill="#909399" stroke="none" fill-opacity="0.0980392156862745" />
    <path d="M 513.5 2626  A 3.5 3.5 0 0 1 517 2622.5 L 585 2622.5  A 3.5 3.5 0 0 1 588.5 2626 L 588.5 2650  A 3.5 3.5 0 0 1 585 2653.5 L 517 2653.5  A 3.5 3.5 0 0 1 513.5 2650 L 513.5 2626  Z " stroke-width="1" stroke="#909399" fill="none" stroke-opacity="0.2" />
  </g>
</svg>