<?xml version="1.0" encoding="utf-8"?>
<svg version="1.1" xmlns:xlink="http://www.w3.org/1999/xlink" width="76px" height="32px" xmlns="http://www.w3.org/2000/svg">
  <g transform="matrix(1 0 0 1 -513 -2622 )">
    <path d="M 513.5 2626  A 3.5 3.5 0 0 1 517 2622.5 L 585 2622.5  A 3.5 3.5 0 0 1 588.5 2626 L 588.5 2650  A 3.5 3.5 0 0 1 585 2653.5 L 517 2653.5  A 3.5 3.5 0 0 1 513.5 2650 L 513.5 2626  Z " fill-rule="nonzero" fill="#0099ff" stroke="none" fill-opacity="0.0980392156862745" />
    <path d="M 513.5 2626  A 3.5 3.5 0 0 1 517 2622.5 L 585 2622.5  A 3.5 3.5 0 0 1 588.5 2626 L 588.5 2650  A 3.5 3.5 0 0 1 585 2653.5 L 517 2653.5  A 3.5 3.5 0 0 1 513.5 2650 L 513.5 2626  Z " stroke-width="1" stroke="#a7d2f9" fill="none" />
  </g>
</svg>