<?xml version="1.0" encoding="utf-8"?>
<svg version="1.1" xmlns:xlink="http://www.w3.org/1999/xlink" width="10px" height="10px" xmlns="http://www.w3.org/2000/svg">
  <g transform="matrix(1 0 0 1 -261 -4188 )">
    <path d="M 9.814453125 0.329861111111112  C 9.93815104166667 0.549768518518517  10 0.810185185185183  10 1.11111111111111  C 10 1.41203703703704  9.93815104166667 1.6724537037037  9.814453125 1.89236111111111  L 5.439453125 9.67013888888889  C 5.31575520833333 9.8900462962963  5.16927083333333 10  5 10  C 4.83072916666667 10  4.68424479166667 9.8900462962963  4.560546875 9.67013888888889  L 0.185546875 1.89236111111111  C 0.0618489583333333 1.6724537037037  0 1.41203703703704  0 1.11111111111111  C 0 0.810185185185183  0.0618489583333333 0.549768518518517  0.185546875 0.329861111111112  C 0.309244791666667 0.109953703703702  0.455729166666667 0  0.625 0  L 9.375 0  C 9.54427083333333 0  9.69075520833333 0.109953703703702  9.814453125 0.329861111111112  Z " fill-rule="nonzero" fill="#000000" stroke="none" transform="matrix(1 0 0 1 261 4188 )" />
  </g>
</svg>