<?xml version="1.0" encoding="utf-8"?>
<svg version="1.1" xmlns:xlink="http://www.w3.org/1999/xlink" width="110px" height="110px" xmlns="http://www.w3.org/2000/svg">
  <defs>
    <filter x="332px" y="1297px" width="110px" height="110px" filterUnits="userSpaceOnUse" id="filter64">
      <feOffset dx="2" dy="2" in="SourceAlpha" result="shadowOffsetInner" />
      <feGaussianBlur stdDeviation="2.5" in="shadowOffsetInner" result="shadowGaussian" />
      <feComposite in2="shadowGaussian" operator="atop" in="SourceAlpha" result="shadowComposite" />
      <feColorMatrix type="matrix" values="0 0 0 0 0  0 0 0 0 0  0 0 0 0 0  0 0 0 0.349019607843137 0  " in="shadowComposite" />
    </filter>
    <g id="widget65">
      <path d="M 385 1300  C 413 1300  435 1322  435 1350  C 435 1378  413 1400  385 1400  C 357 1400  335 1378  335 1350  C 335 1322  357 1300  385 1300  Z " fill-rule="nonzero" fill="#ffffff" stroke="none" />
      <path d="M 385 1300.5  C 412.72 1300.5  434.5 1322.28  434.5 1350  C 434.5 1377.72  412.72 1399.5  385 1399.5  C 357.28 1399.5  335.5 1377.72  335.5 1350  C 335.5 1322.28  357.28 1300.5  385 1300.5  Z " stroke-width="1" stroke="#d7d7d7" fill="none" />
    </g>
  </defs>
  <g transform="matrix(1 0 0 1 -332 -1297 )">
    <use xlink:href="#widget65" filter="url(#filter64)" />
    <use xlink:href="#widget65" />
  </g>
</svg>