<?xml version="1.0" encoding="utf-8"?>
<svg version="1.1" xmlns:xlink="http://www.w3.org/1999/xlink" width="30px" height="25px" xmlns="http://www.w3.org/2000/svg">
  <defs>
    <linearGradient gradientUnits="userSpaceOnUse" x1="15" y1="0" x2="15" y2="25" id="LinearGradient46">
      <stop id="Stop47" stop-color="#bfbf00" offset="0" />
      <stop id="Stop48" stop-color="#8080ff" offset="0" />
      <stop id="Stop49" stop-color="#bfbf00" offset="0" />
      <stop id="Stop50" stop-color="#bfbf00" offset="1" />
      <stop id="Stop51" stop-color="#de7fff" offset="1" />
    </linearGradient>
  </defs>
  <g transform="matrix(1 0 0 1 -683 -2030 )">
    <path d="M 27.1875 22.2301136363636  C 27.5240384615385 21.8986742424242  27.6923076923077 21.4962121212121  27.6923076923077 21.0227272727273  L 27.6923076923077 8.52272727272727  C 27.6923076923077 8.04924242424242  27.5240384615385 7.6467803030303  27.1875 7.31534090909091  C 26.8509615384615 6.98390151515151  26.4423076923077 6.81818181818182  25.9615384615385 7  L 13.2692307692308 7  C 12.7884615384615 6.81818181818182  12.3798076923077 6.65246212121212  12.0432692307692 6.32102272727273  C 11.7067307692308 5.98958333333333  11.5384615384615 5.58712121212121  11.5384615384615 5.11363636363637  L 11.5384615384615 3.97727272727273  C 11.5384615384615 3.50378787878788  11.3701923076923 3.10132575757575  11.0336538461538 2.76988636363636  C 10.6971153846154 2.43844696969697  10.2884615384615 2.27272727272727  9.80769230769231 2.27272727272727  L 4.03846153846154 2.27272727272727  C 3.55769230769231 2.27272727272727  3.14903846153846 2.43844696969697  2.8125 2.76988636363636  C 2.47596153846154 3.10132575757575  2.30769230769231 3.50378787878788  2.30769230769231 3.97727272727273  L 2.30769230769231 21.0227272727273  C 2.30769230769231 21.4962121212121  2.47596153846154 21.8986742424242  2.8125 22.2301136363636  C 3.14903846153846 22.561553030303  3.55769230769231 22.7272727272727  4.03846153846154 22.7272727272727  L 25.9615384615385 22.7272727272727  C 26.4423076923077 22.7272727272727  26.8509615384615 22.561553030303  27.1875 22.2301136363636  Z M 28.8100961538462 5.71732954545454  C 29.6033653846154 6.49857954545454  30 7.43371212121212  30 8.52272727272727  L 30 21.0227272727273  C 30 22.1117424242424  29.6033653846154 23.046875  28.8100961538462 23.828125  C 28.0168269230769 24.609375  27.0673076923077 25  25.9615384615385 25  L 4.03846153846154 25  C 2.93269230769231 25  1.98317307692308 24.609375  1.18990384615385 23.828125  C 0.396634615384615 23.046875  0 22.1117424242424  0 21.0227272727273  L 0 3.97727272727273  C 0 2.88825757575757  0.396634615384615 1.953125  1.18990384615385 1.171875  C 1.98317307692308 0.390625  2.93269230769231 0  4.03846153846154 0  L 9.80769230769231 0  C 10.9134615384615 0  11.8629807692308 0.390625  12.65625 1.171875  C 13.4495192307692 1.953125  13.8461538461538 2.88825757575757  13.8461538461538 3.97727272727273  L 13.8461538461538 5  L 25.9615384615385 5  C 27.0673076923077 4.54545454545454  28.0168269230769 4.93607954545454  28.8100961538462 5.71732954545454  Z " fill-rule="nonzero" fill="url(#LinearGradient46)" stroke="none" transform="matrix(1 0 0 1 683 2030 )" />
  </g>
</svg>