<svg width="100" height="100" viewBox="0 0 100 100" fill="none" xmlns="http://www.w3.org/2000/svg">
<rect x="0.5" y="0.5" width="99" height="99" rx="1.5" fill="#F2F3F5" stroke="#E5E6EB" stroke-dasharray="4 4"/>
<path fill-rule="evenodd" clip-rule="evenodd" d="M49.8346 34.5C49.5585 34.5 49.3346 34.7239 49.3346 35V38.6667H45.668C45.3918 38.6667 45.168 38.8905 45.168 39.1667V40.5C45.168 40.7761 45.3918 41 45.668 41H49.3346V44.6667C49.3346 44.9428 49.5585 45.1667 49.8346 45.1667H51.168C51.4441 45.1667 51.668 44.9428 51.668 44.6667V41H55.3346C55.6108 41 55.8346 40.7761 55.8346 40.5V39.1667C55.8346 38.8905 55.6108 38.6667 55.3346 38.6667H51.668V35C51.668 34.7239 51.4441 34.5 51.168 34.5H49.8346Z" fill="#4E5969"/>
<path d="M33.1325 72.112C31.8445 72.112 30.8691 71.776 30.2065 71.104C29.5438 70.432 29.2125 69.4427 29.2125 68.136V62.13H30.3465V68.234C30.3465 69.1953 30.5798 69.9187 31.0465 70.404C31.5225 70.8893 32.2178 71.132 33.1325 71.132C34.0471 71.132 34.7378 70.8893 35.2045 70.404C35.6711 69.9187 35.9045 69.1953 35.9045 68.234V62.13H37.0525V68.136C37.0525 69.4333 36.7165 70.4227 36.0445 71.104C35.3818 71.776 34.4111 72.112 33.1325 72.112ZM42.6753 65.014C43.2726 65.014 43.8 65.1633 44.2573 65.462C44.7146 65.7607 45.0693 66.1807 45.3213 66.722C45.5733 67.254 45.6993 67.8747 45.6993 68.584C45.6993 69.2933 45.5733 69.914 45.3213 70.446C45.0693 70.9687 44.7146 71.3747 44.2573 71.664C43.8093 71.9533 43.282 72.098 42.6753 72.098C42.1433 72.098 41.6766 71.9813 41.2753 71.748C40.8833 71.5147 40.5846 71.1833 40.3793 70.754V74.52H39.2453V65.182H40.3793V66.358C40.5846 65.9287 40.8833 65.5973 41.2753 65.364C41.6766 65.1307 42.1433 65.014 42.6753 65.014ZM42.4513 71.16C43.114 71.16 43.6273 70.936 43.9913 70.488C44.3553 70.04 44.5373 69.4053 44.5373 68.584C44.5373 67.7627 44.3553 67.1233 43.9913 66.666C43.6273 66.1993 43.114 65.966 42.4513 65.966C41.7886 65.966 41.2753 66.19 40.9113 66.638C40.5566 67.086 40.3793 67.7253 40.3793 68.556C40.3793 69.3867 40.5566 70.0307 40.9113 70.488C41.2753 70.936 41.7886 71.16 42.4513 71.16ZM47.3938 72V62.13H48.5278V72H47.3938ZM53.4757 72.098C52.8317 72.098 52.2623 71.9533 51.7677 71.664C51.2823 71.3747 50.9043 70.964 50.6337 70.432C50.3723 69.8907 50.2417 69.2653 50.2417 68.556C50.2417 67.8467 50.3723 67.226 50.6337 66.694C50.9043 66.1527 51.2823 65.7373 51.7677 65.448C52.2623 65.1587 52.8317 65.014 53.4757 65.014C54.1197 65.014 54.689 65.1587 55.1837 65.448C55.6783 65.7373 56.0563 66.1527 56.3177 66.694C56.5883 67.226 56.7237 67.8467 56.7237 68.556C56.7237 69.2653 56.5883 69.8907 56.3177 70.432C56.0563 70.964 55.6783 71.3747 55.1837 71.664C54.689 71.9533 54.1197 72.098 53.4757 72.098ZM53.4757 71.16C54.1477 71.16 54.661 70.9407 55.0157 70.502C55.3797 70.054 55.5617 69.4053 55.5617 68.556C55.5617 67.7253 55.3797 67.086 55.0157 66.638C54.6517 66.1807 54.1383 65.952 53.4757 65.952C52.813 65.952 52.2997 66.1807 51.9357 66.638C51.5717 67.086 51.3897 67.7253 51.3897 68.556C51.3897 69.396 51.567 70.04 51.9217 70.488C52.2857 70.936 52.8037 71.16 53.4757 71.16ZM61.1853 65.014C62.0533 65.014 62.6973 65.238 63.1173 65.686C63.5466 66.1247 63.7613 66.7967 63.7613 67.702V72H62.6553V70.838C62.4779 71.2393 62.2073 71.552 61.8433 71.776C61.4793 71.9907 61.0593 72.098 60.5833 72.098C60.1446 72.098 59.7386 72.0093 59.3653 71.832C59.0013 71.6547 58.7119 71.4073 58.4973 71.09C58.2826 70.7727 58.1753 70.4227 58.1753 70.04C58.1753 69.5267 58.3059 69.13 58.5673 68.85C58.8286 68.5607 59.2579 68.3553 59.8553 68.234C60.4526 68.1033 61.2833 68.038 62.3473 68.038H62.6553V67.576C62.6553 67.0067 62.5386 66.596 62.3053 66.344C62.0719 66.0827 61.6939 65.952 61.1713 65.952C60.3873 65.952 59.6079 66.1947 58.8333 66.68L58.4553 65.854C58.8099 65.602 59.2346 65.4013 59.7293 65.252C60.2333 65.0933 60.7186 65.014 61.1853 65.014ZM60.7373 71.202C61.2973 71.202 61.7546 71.0153 62.1093 70.642C62.4733 70.2593 62.6553 69.7693 62.6553 69.172V68.766H62.4033C61.5819 68.766 60.9566 68.8033 60.5273 68.878C60.0979 68.9433 59.7899 69.06 59.6033 69.228C59.4259 69.3867 59.3373 69.6247 59.3373 69.942C59.3373 70.306 59.4679 70.6093 59.7293 70.852C59.9999 71.0853 60.3359 71.202 60.7373 71.202ZM71.8851 62.13V72H70.7511V70.754C70.5458 71.1833 70.2424 71.5147 69.8411 71.748C69.4491 71.9813 68.9871 72.098 68.4551 72.098C67.8578 72.098 67.3304 71.9487 66.8731 71.65C66.4158 71.3513 66.0611 70.936 65.8091 70.404C65.5571 69.8627 65.4311 69.2373 65.4311 68.528C65.4311 67.828 65.5571 67.212 65.8091 66.68C66.0611 66.148 66.4158 65.7373 66.8731 65.448C67.3304 65.1587 67.8578 65.014 68.4551 65.014C68.9871 65.014 69.4491 65.1307 69.8411 65.364C70.2424 65.5973 70.5458 65.9287 70.7511 66.358V62.13H71.8851ZM68.6791 71.16C69.3418 71.16 69.8504 70.936 70.2051 70.488C70.5691 70.0307 70.7511 69.3867 70.7511 68.556C70.7511 67.7253 70.5691 67.086 70.2051 66.638C69.8504 66.19 69.3418 65.966 68.6791 65.966C68.0164 65.966 67.4984 66.19 67.1251 66.638C66.7611 67.086 66.5791 67.716 66.5791 68.528C66.5791 69.3587 66.7611 70.0073 67.1251 70.474C67.4984 70.9313 68.0164 71.16 68.6791 71.16Z" fill="#4E5969"/>
</svg>
