<?xml version="1.0" encoding="utf-8"?>
<svg version="1.1" xmlns:xlink="http://www.w3.org/1999/xlink" width="12px" height="6px" xmlns="http://www.w3.org/2000/svg">
  <g transform="matrix(1 0 0 1 -313 -564 )">
    <path d="M 11.8797595190381 0.615022091310749  C 11.9599198396793 0.683357879234165  12 0.761944035346102  12 0.850780559646535  C 12 0.939617083946981  11.9599198396793 1.01820324005891  11.8797595190381 1.08653902798232  L 6.27655310621242 5.86321060382916  C 6.19639278557116 5.93154639175258  6.10420841683367 5.96571428571428  6 5.96571428571428  C 5.89579158316633 5.96571428571428  5.80360721442889 5.93154639175258  5.72344689378758 5.86321060382916  L 0.120240480961911 1.08653902798232  C 0.040080160320656 1.01820324005891  0 0.939617083946981  0 0.850780559646535  C 0 0.761944035346102  0.040080160320656 0.683357879234165  0.120240480961911 0.615022091310749  L 0.721442885771523 0.102503681885131  C 0.801603206412835 0.0341678939617144  0.89378757515027 0  0.997995991983998 0  C 1.10220440881767 0  1.1943887775551 0.0341678939617144  1.27454909819642 0.102503681885131  L 6 4.13089837997054  L 10.7254509018036 0.102503681885131  C 10.8056112224449 0.0341678939617144  10.8977955911823 0  11.002004008016 0  C 11.1062124248497 0  11.1983967935872 0.0341678939617144  11.2785571142285 0.102503681885131  L 11.8797595190381 0.615022091310749  Z " fill-rule="nonzero" fill="#cccccc" stroke="none" transform="matrix(1 0 0 1 313 564 )" />
  </g>
</svg>