<?xml version="1.0" encoding="utf-8"?>
<svg version="1.1" xmlns:xlink="http://www.w3.org/1999/xlink" width="15px" height="18px" xmlns="http://www.w3.org/2000/svg">
  <g transform="matrix(1 0 0 1 -134 -2187 )">
    <path d="M 7.553125 8.33708571428572  C 5.362375 8.33708571428572  3.586 6.55727142857143  3.586 4.36127142857143  C 3.586 2.16533571428572  5.362375 0.385457142857142  7.553125 0.385457142857142  C 9.7438125 0.385457142857142  11.52025 2.16533571428572  11.52025 4.36127142857143  C 11.52025 6.55727142857143  9.7438125 8.33708571428572  7.553125 8.33708571428572  Z M 0.500499999999999 16.8188785714286  L 0.500499999999999 14.4333642857143  C 0.500499999999999 11.7982928571429  2.6074375 9.6624  5.2036875 9.6624  L 9.9025 9.6624  C 12.49875 9.6624  14.60575 11.7982928571429  14.60575 14.4333642857143  L 14.60575 16.8188785714286  C 14.60575 17.25795  14.253125 17.6140285714286  13.821125 17.6140285714286  L 1.2850625 17.6140285714286  C 0.853124999999999 17.6140285714286  0.500499999999999 17.25795  0.500499999999999 16.8188785714286  Z " fill-rule="nonzero" fill="#ffffff" stroke="none" transform="matrix(1 0 0 1 134 2187 )" />
  </g>
</svg>