<?xml version="1.0" encoding="utf-8"?>
<svg version="1.1" xmlns:xlink="http://www.w3.org/1999/xlink" width="16px" height="15px" xmlns="http://www.w3.org/2000/svg">
  <g transform="matrix(1 0 0 1 -422 -1023 )">
    <path d="M 9.8125 9.19921875  C 10.6554487179487 8.40895432692308  11.0769230769231 7.45793269230769  11.0769230769231 6.34615384615385  C 11.0769230769231 5.234375  10.6554487179487 4.28335336538462  9.8125 3.49308894230769  C 8.96955128205128 2.70282451923077  7.95512820512821 2.30769230769231  6.76923076923077 2.30769230769231  C 5.58333333333333 2.30769230769231  4.56891025641026 2.70282451923077  3.72596153846154 3.49308894230769  C 2.88301282051282 4.28335336538462  2.46153846153846 5.234375  2.46153846153846 6.34615384615385  C 2.46153846153846 7.45793269230769  2.88301282051282 8.40895432692308  3.72596153846154 9.19921875  C 4.56891025641026 9.98948317307692  5.58333333333333 10.3846153846154  6.76923076923077 10.3846153846154  C 7.95512820512821 10.3846153846154  8.96955128205128 9.98948317307692  9.8125 9.19921875  Z M 15.6442307692308 13.0348557692308  C 15.8814102564103 13.2572115384615  16 13.5276442307692  16 13.8461538461538  C 16 14.1586538461538  15.8782051282051 14.4290865384615  15.6346153846154 14.6574519230769  C 15.3910256410256 14.8858173076923  15.1025641025641 15  14.7692307692308 15  C 14.4230769230769 15  14.1346153846154 14.8858173076923  13.9038461538462 14.6574519230769  L 10.6057692307692 11.5745192307692  C 9.45833333333333 12.3197115384615  8.17948717948718 12.6923076923077  6.76923076923077 12.6923076923077  C 5.8525641025641 12.6923076923077  4.97596153846154 12.5255408653846  4.13942307692308 12.1920072115385  C 3.30288461538462 11.8584735576923  2.58173076923077 11.4077524038462  1.97596153846154 10.83984375  C 1.37019230769231 10.2719350961538  0.889423076923077 9.59585336538462  0.533653846153846 8.81159855769231  C 0.177884615384615 8.02734375  0 7.20552884615384  0 6.34615384615385  C 0 5.48677884615384  0.177884615384615 4.66496394230769  0.533653846153846 3.88070913461538  C 0.889423076923077 3.09645432692308  1.37019230769231 2.42037259615385  1.97596153846154 1.85246394230769  C 2.58173076923077 1.28455528846154  3.30288461538462 0.833834134615384  4.13942307692308 0.500300480769231  C 4.97596153846154 0.166766826923077  5.8525641025641 0  6.76923076923077 0  C 7.68589743589744 0  8.5625 0.166766826923077  9.39903846153846 0.500300480769231  C 10.2355769230769 0.833834134615384  10.9567307692308 1.28455528846154  11.5625 1.85246394230769  C 12.1682692307692 2.42037259615385  12.6490384615385 3.09645432692308  13.0048076923077 3.88070913461538  C 13.3605769230769 4.66496394230769  13.5384615384615 5.48677884615384  13.5384615384615 6.34615384615385  C 13.5384615384615 7.66826923076923  13.1410256410256 8.8671875  12.3461538461538 9.94290865384615  L 15.6442307692308 13.0348557692308  Z " fill-rule="nonzero" fill="#aaaaaa" stroke="none" transform="matrix(1 0 0 1 422 1023 )" />
  </g>
</svg>