<?xml version="1.0" encoding="utf-8"?>
<svg version="1.1" xmlns:xlink="http://www.w3.org/1999/xlink" width="24px" height="20px" xmlns="http://www.w3.org/2000/svg">
  <g transform="matrix(1 0 0 1 -348 -949 )">
    <path d="M 21.75 17.7840909090909  C 22.0192307692308 17.5189393939394  22.1538461538462 17.1969696969697  22 16.8181818181818  L 22 6.81818181818182  C 22.1538461538462 6.43939393939394  22.0192307692308 6.11742424242424  21.75 5.85227272727273  C 21.4807692307692 5.58712121212121  21.1538461538462 5.45454545454545  20.7692307692308 5.45454545454545  L 10.6153846153846 5.45454545454545  C 10.2307692307692 5.45454545454545  9.90384615384616 5.3219696969697  9.63461538461539 5.05681818181818  C 9.36538461538462 4.79166666666667  9.23076923076923 4.46969696969697  9.23076923076923 4.09090909090909  L 9.23076923076923 3.18181818181818  C 9.23076923076923 2.8030303030303  9.09615384615385 2.4810606060606  8.82692307692308 2.21590909090909  C 8.55769230769231 1.95075757575758  8.23076923076923 1.81818181818182  7.84615384615385 1.81818181818182  L 3.23076923076923 1.81818181818182  C 2.84615384615385 1.81818181818182  2.51923076923077 1.95075757575758  2.25 2.21590909090909  C 1.98076923076923 2.4810606060606  1.84615384615385 2.8030303030303  2 3.18181818181818  L 2 16.8181818181818  C 1.84615384615385 17.1969696969697  1.98076923076923 17.5189393939394  2.25 17.7840909090909  C 2.51923076923077 18.0492424242424  2.84615384615385 18.1818181818182  3.23076923076923 18  L 20.7692307692308 18  C 21.1538461538462 18.1818181818182  21.4807692307692 18.0492424242424  21.75 17.7840909090909  Z M 23.0480769230769 4.57386363636363  C 23.6826923076923 5.19886363636363  24 5.9469696969697  24 6.81818181818182  L 24 16.8181818181818  C 24 17.6893939393939  23.6826923076923 18.4375  23.0480769230769 19.0625  C 22.4134615384615 19.6875  21.6538461538462 20  20.7692307692308 20  L 3.23076923076923 20  C 2.34615384615385 20  1.58653846153846 19.6875  0.951923076923077 19.0625  C 0.317307692307692 18.4375  0 17.6893939393939  0 16.8181818181818  L 0 3.18181818181818  C 0 2.31060606060606  0.317307692307692 1.5625  0.951923076923077 0.9375  C 1.58653846153846 0.3125  2.34615384615385 0  3.23076923076923 0  L 7.84615384615385 0  C 8.73076923076923 0  9.49038461538462 0.3125  10.125 0.9375  C 10.7596153846154 1.5625  11.0769230769231 2.31060606060606  11.0769230769231 3.18181818181818  L 11.0769230769231 3.63636363636364  L 20.7692307692308 3.63636363636364  C 21.6538461538462 3.63636363636364  22.4134615384615 3.94886363636364  23.0480769230769 4.57386363636363  Z " fill-rule="nonzero" fill="#000000" stroke="none" transform="matrix(1 0 0 1 348 949 )" />
  </g>
</svg>