<?xml version="1.0" encoding="utf-8"?>
<svg version="1.1" xmlns:xlink="http://www.w3.org/1999/xlink" width="20px" height="15px" xmlns="http://www.w3.org/2000/svg">
  <g transform="matrix(1 0 0 1 -265 -1167 )">
    <path d="M 18.125 13.3380681818182  C 18.349358974359 13.1392045454545  18.4615384615385 12.8977272727273  18.4615384615385 12.6136363636364  L 18.4615384615385 5.11363636363636  C 18.4615384615385 4.82954545454545  18.349358974359 4.58806818181818  18.125 4.38920454545455  C 17.900641025641 4.19034090909091  17.6282051282051 4.09090909090909  17.3076923076923 4.09090909090909  L 8.84615384615385 4.09090909090909  C 8.52564102564103 4.09090909090909  8.25320512820513 3.99147727272727  8.02884615384615 3.79261363636364  C 7.80448717948718 3.59375  7.69230769230769 3.35227272727273  7.69230769230769 3.06818181818182  L 7.69230769230769 2.38636363636364  C 7.69230769230769 2.10227272727273  7.58012820512821 1.86079545454545  7.35576923076923 1.66193181818182  C 7.13141025641026 1.46306818181818  6.85897435897436 1.36363636363636  6.53846153846154 1.36363636363636  L 2.69230769230769 1.36363636363636  C 2.37179487179487 1.36363636363636  2.09935897435897 1.46306818181818  1.875 1.66193181818182  C 1.65064102564103 1.86079545454545  1.53846153846154 2.10227272727273  1.53846153846154 2.38636363636364  L 1.53846153846154 12.6136363636364  C 1.53846153846154 12.8977272727273  1.65064102564103 13.1392045454545  1.875 13.3380681818182  C 2.09935897435897 13.5369318181818  2.37179487179487 13.6363636363636  2.69230769230769 13.6363636363636  L 17.3076923076923 13.6363636363636  C 17.6282051282051 13.6363636363636  17.900641025641 13.5369318181818  18.125 13.3380681818182  Z M 19.2067307692308 3.43039772727273  C 19.7355769230769 3.89914772727273  20 4.46022727272727  20 5.11363636363636  L 20 12.6136363636364  C 20 13.2670454545455  19.7355769230769 13.828125  19.2067307692308 14.296875  C 18.6778846153846 14.765625  18.0448717948718 15  17.3076923076923 15  L 2.69230769230769 15  C 1.95512820512821 15  1.32211538461539 14.765625  0.793269230769231 14.296875  C 0.264423076923077 13.828125  0 13.2670454545455  0 12.6136363636364  L 0 2.38636363636364  C 0 1.73295454545454  0.264423076923077 1.171875  0.793269230769231 0.703125  C 1.32211538461539 0.234375  1.95512820512821 0  2.69230769230769 0  L 6.53846153846154 0  C 7.27564102564103 0  7.90865384615385 0.234375  8.4375 0.703125  C 8.96634615384615 1.171875  9.23076923076923 1.73295454545454  9.23076923076923 2.38636363636364  L 9.23076923076923 2.72727272727273  L 17.3076923076923 2.72727272727273  C 18.0448717948718 2.72727272727273  18.6778846153846 2.96164772727273  19.2067307692308 3.43039772727273  Z " fill-rule="nonzero" fill="#000000" stroke="none" transform="matrix(1 0 0 1 265 1167 )" />
  </g>
</svg>